<mxfile host="app.diagrams.net" modified="2023-09-22T09:13:14.804Z" agent="Mozilla/5.0 (Windows NT 10.0; Win64; x64; rv:109.0) Gecko/20100101 Firefox/117.0" etag="iUjzeSZag201Z9ay8idf" version="21.8.0" type="onedrive">
  <diagram id="R2lEEEUBdFMjLlhIrx00" name="Page-1">
    <mxGraphModel grid="1" page="1" gridSize="10" guides="1" tooltips="1" connect="1" arrows="1" fold="1" pageScale="1" pageWidth="850" pageHeight="1100" math="0" shadow="0" extFonts="Permanent Marker^https://fonts.googleapis.com/css?family=Permanent+Marker">
      <root>
        <mxCell id="0" />
        <mxCell id="1" parent="0" />
        <mxCell id="yDGl7lu49Jlx236duuth-2" value="Projects" style="shape=table;startSize=30;container=1;collapsible=1;childLayout=tableLayout;fixedRows=1;rowLines=0;fontStyle=1;align=center;resizeLast=1;html=1;fontSize=16;labelBackgroundColor=none;fillColor=#F2CC8F;strokeColor=#E07A5F;fontColor=#393C56;rounded=1;" vertex="1" parent="1">
          <mxGeometry x="-100" y="190" width="180" height="210" as="geometry" />
        </mxCell>
        <mxCell id="yDGl7lu49Jlx236duuth-3" value="" style="shape=tableRow;horizontal=0;startSize=0;swimlaneHead=0;swimlaneBody=0;fillColor=none;collapsible=0;dropTarget=0;points=[[0,0.5],[1,0.5]];portConstraint=eastwest;top=0;left=0;right=0;bottom=1;fontSize=16;labelBackgroundColor=none;strokeColor=#E07A5F;fontColor=#393C56;rounded=1;" vertex="1" parent="yDGl7lu49Jlx236duuth-2">
          <mxGeometry y="30" width="180" height="30" as="geometry" />
        </mxCell>
        <mxCell id="yDGl7lu49Jlx236duuth-4" value="PK" style="shape=partialRectangle;connectable=0;fillColor=none;top=0;left=0;bottom=0;right=0;fontStyle=1;overflow=hidden;whiteSpace=wrap;html=1;fontSize=16;labelBackgroundColor=none;strokeColor=#E07A5F;fontColor=#393C56;rounded=1;" vertex="1" parent="yDGl7lu49Jlx236duuth-3">
          <mxGeometry width="30" height="30" as="geometry">
            <mxRectangle width="30" height="30" as="alternateBounds" />
          </mxGeometry>
        </mxCell>
        <mxCell id="yDGl7lu49Jlx236duuth-5" value="ProjectID" style="shape=partialRectangle;connectable=0;fillColor=none;top=0;left=0;bottom=0;right=0;align=left;spacingLeft=6;fontStyle=5;overflow=hidden;whiteSpace=wrap;html=1;fontSize=16;labelBackgroundColor=none;strokeColor=#E07A5F;fontColor=#393C56;rounded=1;" vertex="1" parent="yDGl7lu49Jlx236duuth-3">
          <mxGeometry x="30" width="150" height="30" as="geometry">
            <mxRectangle width="150" height="30" as="alternateBounds" />
          </mxGeometry>
        </mxCell>
        <mxCell id="yDGl7lu49Jlx236duuth-6" value="" style="shape=tableRow;horizontal=0;startSize=0;swimlaneHead=0;swimlaneBody=0;fillColor=none;collapsible=0;dropTarget=0;points=[[0,0.5],[1,0.5]];portConstraint=eastwest;top=0;left=0;right=0;bottom=0;fontSize=16;labelBackgroundColor=none;strokeColor=#E07A5F;fontColor=#393C56;rounded=1;" vertex="1" parent="yDGl7lu49Jlx236duuth-2">
          <mxGeometry y="60" width="180" height="30" as="geometry" />
        </mxCell>
        <mxCell id="yDGl7lu49Jlx236duuth-7" value="" style="shape=partialRectangle;connectable=0;fillColor=none;top=0;left=0;bottom=0;right=0;editable=1;overflow=hidden;whiteSpace=wrap;html=1;fontSize=16;labelBackgroundColor=none;strokeColor=#E07A5F;fontColor=#393C56;rounded=1;" vertex="1" parent="yDGl7lu49Jlx236duuth-6">
          <mxGeometry width="30" height="30" as="geometry">
            <mxRectangle width="30" height="30" as="alternateBounds" />
          </mxGeometry>
        </mxCell>
        <mxCell id="yDGl7lu49Jlx236duuth-8" value="ProjectName" style="shape=partialRectangle;connectable=0;fillColor=none;top=0;left=0;bottom=0;right=0;align=left;spacingLeft=6;overflow=hidden;whiteSpace=wrap;html=1;fontSize=16;labelBackgroundColor=none;strokeColor=#E07A5F;fontColor=#393C56;rounded=1;" vertex="1" parent="yDGl7lu49Jlx236duuth-6">
          <mxGeometry x="30" width="150" height="30" as="geometry">
            <mxRectangle width="150" height="30" as="alternateBounds" />
          </mxGeometry>
        </mxCell>
        <mxCell id="yDGl7lu49Jlx236duuth-9" value="" style="shape=tableRow;horizontal=0;startSize=0;swimlaneHead=0;swimlaneBody=0;fillColor=none;collapsible=0;dropTarget=0;points=[[0,0.5],[1,0.5]];portConstraint=eastwest;top=0;left=0;right=0;bottom=0;fontSize=16;labelBackgroundColor=none;strokeColor=#E07A5F;fontColor=#393C56;rounded=1;" vertex="1" parent="yDGl7lu49Jlx236duuth-2">
          <mxGeometry y="90" width="180" height="30" as="geometry" />
        </mxCell>
        <mxCell id="yDGl7lu49Jlx236duuth-10" value="" style="shape=partialRectangle;connectable=0;fillColor=none;top=0;left=0;bottom=0;right=0;editable=1;overflow=hidden;whiteSpace=wrap;html=1;fontSize=16;labelBackgroundColor=none;strokeColor=#E07A5F;fontColor=#393C56;rounded=1;" vertex="1" parent="yDGl7lu49Jlx236duuth-9">
          <mxGeometry width="30" height="30" as="geometry">
            <mxRectangle width="30" height="30" as="alternateBounds" />
          </mxGeometry>
        </mxCell>
        <mxCell id="yDGl7lu49Jlx236duuth-11" value="Description" style="shape=partialRectangle;connectable=0;fillColor=none;top=0;left=0;bottom=0;right=0;align=left;spacingLeft=6;overflow=hidden;whiteSpace=wrap;html=1;fontSize=16;labelBackgroundColor=none;strokeColor=#E07A5F;fontColor=#393C56;rounded=1;" vertex="1" parent="yDGl7lu49Jlx236duuth-9">
          <mxGeometry x="30" width="150" height="30" as="geometry">
            <mxRectangle width="150" height="30" as="alternateBounds" />
          </mxGeometry>
        </mxCell>
        <mxCell id="yDGl7lu49Jlx236duuth-12" value="" style="shape=tableRow;horizontal=0;startSize=0;swimlaneHead=0;swimlaneBody=0;fillColor=none;collapsible=0;dropTarget=0;points=[[0,0.5],[1,0.5]];portConstraint=eastwest;top=0;left=0;right=0;bottom=0;fontSize=16;labelBackgroundColor=none;strokeColor=#E07A5F;fontColor=#393C56;rounded=1;" vertex="1" parent="yDGl7lu49Jlx236duuth-2">
          <mxGeometry y="120" width="180" height="30" as="geometry" />
        </mxCell>
        <mxCell id="yDGl7lu49Jlx236duuth-13" value="" style="shape=partialRectangle;connectable=0;fillColor=none;top=0;left=0;bottom=0;right=0;editable=1;overflow=hidden;whiteSpace=wrap;html=1;fontSize=16;labelBackgroundColor=none;strokeColor=#E07A5F;fontColor=#393C56;rounded=1;" vertex="1" parent="yDGl7lu49Jlx236duuth-12">
          <mxGeometry width="30" height="30" as="geometry">
            <mxRectangle width="30" height="30" as="alternateBounds" />
          </mxGeometry>
        </mxCell>
        <mxCell id="yDGl7lu49Jlx236duuth-14" value="ImageURL" style="shape=partialRectangle;connectable=0;fillColor=none;top=0;left=0;bottom=0;right=0;align=left;spacingLeft=6;overflow=hidden;whiteSpace=wrap;html=1;fontSize=16;labelBackgroundColor=none;strokeColor=#E07A5F;fontColor=#393C56;rounded=1;" vertex="1" parent="yDGl7lu49Jlx236duuth-12">
          <mxGeometry x="30" width="150" height="30" as="geometry">
            <mxRectangle width="150" height="30" as="alternateBounds" />
          </mxGeometry>
        </mxCell>
        <mxCell id="yDGl7lu49Jlx236duuth-28" value="" style="shape=tableRow;horizontal=0;startSize=0;swimlaneHead=0;swimlaneBody=0;fillColor=none;collapsible=0;dropTarget=0;points=[[0,0.5],[1,0.5]];portConstraint=eastwest;top=0;left=0;right=0;bottom=0;fontSize=16;labelBackgroundColor=none;strokeColor=#E07A5F;fontColor=#393C56;rounded=1;" vertex="1" parent="yDGl7lu49Jlx236duuth-2">
          <mxGeometry y="150" width="180" height="30" as="geometry" />
        </mxCell>
        <mxCell id="yDGl7lu49Jlx236duuth-29" value="" style="shape=partialRectangle;connectable=0;fillColor=none;top=0;left=0;bottom=0;right=0;editable=1;overflow=hidden;whiteSpace=wrap;html=1;fontSize=16;labelBackgroundColor=none;strokeColor=#E07A5F;fontColor=#393C56;rounded=1;" vertex="1" parent="yDGl7lu49Jlx236duuth-28">
          <mxGeometry width="30" height="30" as="geometry">
            <mxRectangle width="30" height="30" as="alternateBounds" />
          </mxGeometry>
        </mxCell>
        <mxCell id="yDGl7lu49Jlx236duuth-30" value="Type" style="shape=partialRectangle;connectable=0;fillColor=none;top=0;left=0;bottom=0;right=0;align=left;spacingLeft=6;overflow=hidden;whiteSpace=wrap;html=1;fontSize=16;labelBackgroundColor=none;strokeColor=#E07A5F;fontColor=#393C56;rounded=1;" vertex="1" parent="yDGl7lu49Jlx236duuth-28">
          <mxGeometry x="30" width="150" height="30" as="geometry">
            <mxRectangle width="150" height="30" as="alternateBounds" />
          </mxGeometry>
        </mxCell>
        <mxCell id="yDGl7lu49Jlx236duuth-31" value="" style="shape=tableRow;horizontal=0;startSize=0;swimlaneHead=0;swimlaneBody=0;fillColor=none;collapsible=0;dropTarget=0;points=[[0,0.5],[1,0.5]];portConstraint=eastwest;top=0;left=0;right=0;bottom=0;fontSize=16;labelBackgroundColor=none;strokeColor=#E07A5F;fontColor=#393C56;rounded=1;" vertex="1" parent="yDGl7lu49Jlx236duuth-2">
          <mxGeometry y="180" width="180" height="30" as="geometry" />
        </mxCell>
        <mxCell id="yDGl7lu49Jlx236duuth-32" value="" style="shape=partialRectangle;connectable=0;fillColor=none;top=0;left=0;bottom=0;right=0;editable=1;overflow=hidden;whiteSpace=wrap;html=1;fontSize=16;labelBackgroundColor=none;strokeColor=#E07A5F;fontColor=#393C56;rounded=1;" vertex="1" parent="yDGl7lu49Jlx236duuth-31">
          <mxGeometry width="30" height="30" as="geometry">
            <mxRectangle width="30" height="30" as="alternateBounds" />
          </mxGeometry>
        </mxCell>
        <mxCell id="yDGl7lu49Jlx236duuth-33" value="CreationDate" style="shape=partialRectangle;connectable=0;fillColor=none;top=0;left=0;bottom=0;right=0;align=left;spacingLeft=6;overflow=hidden;whiteSpace=wrap;html=1;fontSize=16;labelBackgroundColor=none;strokeColor=#E07A5F;fontColor=#393C56;rounded=1;" vertex="1" parent="yDGl7lu49Jlx236duuth-31">
          <mxGeometry x="30" width="150" height="30" as="geometry">
            <mxRectangle width="150" height="30" as="alternateBounds" />
          </mxGeometry>
        </mxCell>
        <mxCell id="bDJYfbxkxiJSRchSU44N-22" style="edgeStyle=orthogonalEdgeStyle;rounded=0;orthogonalLoop=1;jettySize=auto;html=1;entryX=0.5;entryY=0;entryDx=0;entryDy=0;exitX=0.5;exitY=0;exitDx=0;exitDy=0;labelBackgroundColor=none;strokeColor=#E07A5F;fontColor=default;endArrow=none;endFill=0;" edge="1" parent="1" source="yDGl7lu49Jlx236duuth-15" target="yDGl7lu49Jlx236duuth-2">
          <mxGeometry relative="1" as="geometry" />
        </mxCell>
        <mxCell id="bDJYfbxkxiJSRchSU44N-23" value="Creates" style="edgeLabel;html=1;align=center;verticalAlign=middle;resizable=0;points=[];fontColor=#393C56;" connectable="0" vertex="1" parent="bDJYfbxkxiJSRchSU44N-22">
          <mxGeometry x="0.0374" y="1" relative="1" as="geometry">
            <mxPoint x="-1" as="offset" />
          </mxGeometry>
        </mxCell>
        <mxCell id="bDJYfbxkxiJSRchSU44N-24" value="0..*" style="edgeLabel;html=1;align=center;verticalAlign=middle;resizable=0;points=[];fontColor=#393C56;" connectable="0" vertex="1" parent="bDJYfbxkxiJSRchSU44N-22">
          <mxGeometry x="0.7219" relative="1" as="geometry">
            <mxPoint x="-1" as="offset" />
          </mxGeometry>
        </mxCell>
        <mxCell id="bDJYfbxkxiJSRchSU44N-25" value="1" style="edgeLabel;html=1;align=center;verticalAlign=middle;resizable=0;points=[];fontColor=#393C56;" connectable="0" vertex="1" parent="bDJYfbxkxiJSRchSU44N-22">
          <mxGeometry x="-0.8767" y="1" relative="1" as="geometry">
            <mxPoint as="offset" />
          </mxGeometry>
        </mxCell>
        <mxCell id="yDGl7lu49Jlx236duuth-15" value="Users" style="shape=table;startSize=30;container=1;collapsible=1;childLayout=tableLayout;fixedRows=1;rowLines=0;fontStyle=1;align=center;resizeLast=1;html=1;fontSize=16;labelBackgroundColor=none;fillColor=#F2CC8F;strokeColor=#E07A5F;fontColor=#393C56;rounded=1;" vertex="1" parent="1">
          <mxGeometry x="160" y="220" width="180" height="180" as="geometry" />
        </mxCell>
        <mxCell id="yDGl7lu49Jlx236duuth-16" value="" style="shape=tableRow;horizontal=0;startSize=0;swimlaneHead=0;swimlaneBody=0;fillColor=none;collapsible=0;dropTarget=0;points=[[0,0.5],[1,0.5]];portConstraint=eastwest;top=0;left=0;right=0;bottom=1;fontSize=16;labelBackgroundColor=none;strokeColor=#E07A5F;fontColor=#393C56;rounded=1;" vertex="1" parent="yDGl7lu49Jlx236duuth-15">
          <mxGeometry y="30" width="180" height="30" as="geometry" />
        </mxCell>
        <mxCell id="yDGl7lu49Jlx236duuth-17" value="PK" style="shape=partialRectangle;connectable=0;fillColor=none;top=0;left=0;bottom=0;right=0;fontStyle=1;overflow=hidden;whiteSpace=wrap;html=1;fontSize=16;labelBackgroundColor=none;strokeColor=#E07A5F;fontColor=#393C56;rounded=1;" vertex="1" parent="yDGl7lu49Jlx236duuth-16">
          <mxGeometry width="30" height="30" as="geometry">
            <mxRectangle width="30" height="30" as="alternateBounds" />
          </mxGeometry>
        </mxCell>
        <mxCell id="yDGl7lu49Jlx236duuth-18" value="UserID" style="shape=partialRectangle;connectable=0;fillColor=none;top=0;left=0;bottom=0;right=0;align=left;spacingLeft=6;fontStyle=5;overflow=hidden;whiteSpace=wrap;html=1;fontSize=16;labelBackgroundColor=none;strokeColor=#E07A5F;fontColor=#393C56;rounded=1;" vertex="1" parent="yDGl7lu49Jlx236duuth-16">
          <mxGeometry x="30" width="150" height="30" as="geometry">
            <mxRectangle width="150" height="30" as="alternateBounds" />
          </mxGeometry>
        </mxCell>
        <mxCell id="yDGl7lu49Jlx236duuth-19" value="" style="shape=tableRow;horizontal=0;startSize=0;swimlaneHead=0;swimlaneBody=0;fillColor=none;collapsible=0;dropTarget=0;points=[[0,0.5],[1,0.5]];portConstraint=eastwest;top=0;left=0;right=0;bottom=0;fontSize=16;labelBackgroundColor=none;strokeColor=#E07A5F;fontColor=#393C56;rounded=1;" vertex="1" parent="yDGl7lu49Jlx236duuth-15">
          <mxGeometry y="60" width="180" height="30" as="geometry" />
        </mxCell>
        <mxCell id="yDGl7lu49Jlx236duuth-20" value="" style="shape=partialRectangle;connectable=0;fillColor=none;top=0;left=0;bottom=0;right=0;editable=1;overflow=hidden;whiteSpace=wrap;html=1;fontSize=16;labelBackgroundColor=none;strokeColor=#E07A5F;fontColor=#393C56;rounded=1;" vertex="1" parent="yDGl7lu49Jlx236duuth-19">
          <mxGeometry width="30" height="30" as="geometry">
            <mxRectangle width="30" height="30" as="alternateBounds" />
          </mxGeometry>
        </mxCell>
        <mxCell id="yDGl7lu49Jlx236duuth-21" value="Username" style="shape=partialRectangle;connectable=0;fillColor=none;top=0;left=0;bottom=0;right=0;align=left;spacingLeft=6;overflow=hidden;whiteSpace=wrap;html=1;fontSize=16;labelBackgroundColor=none;strokeColor=#E07A5F;fontColor=#393C56;rounded=1;" vertex="1" parent="yDGl7lu49Jlx236duuth-19">
          <mxGeometry x="30" width="150" height="30" as="geometry">
            <mxRectangle width="150" height="30" as="alternateBounds" />
          </mxGeometry>
        </mxCell>
        <mxCell id="yDGl7lu49Jlx236duuth-22" value="" style="shape=tableRow;horizontal=0;startSize=0;swimlaneHead=0;swimlaneBody=0;fillColor=none;collapsible=0;dropTarget=0;points=[[0,0.5],[1,0.5]];portConstraint=eastwest;top=0;left=0;right=0;bottom=0;fontSize=16;labelBackgroundColor=none;strokeColor=#E07A5F;fontColor=#393C56;rounded=1;" vertex="1" parent="yDGl7lu49Jlx236duuth-15">
          <mxGeometry y="90" width="180" height="30" as="geometry" />
        </mxCell>
        <mxCell id="yDGl7lu49Jlx236duuth-23" value="" style="shape=partialRectangle;connectable=0;fillColor=none;top=0;left=0;bottom=0;right=0;editable=1;overflow=hidden;whiteSpace=wrap;html=1;fontSize=16;labelBackgroundColor=none;strokeColor=#E07A5F;fontColor=#393C56;rounded=1;" vertex="1" parent="yDGl7lu49Jlx236duuth-22">
          <mxGeometry width="30" height="30" as="geometry">
            <mxRectangle width="30" height="30" as="alternateBounds" />
          </mxGeometry>
        </mxCell>
        <mxCell id="yDGl7lu49Jlx236duuth-24" value="Email" style="shape=partialRectangle;connectable=0;fillColor=none;top=0;left=0;bottom=0;right=0;align=left;spacingLeft=6;overflow=hidden;whiteSpace=wrap;html=1;fontSize=16;labelBackgroundColor=none;strokeColor=#E07A5F;fontColor=#393C56;rounded=1;" vertex="1" parent="yDGl7lu49Jlx236duuth-22">
          <mxGeometry x="30" width="150" height="30" as="geometry">
            <mxRectangle width="150" height="30" as="alternateBounds" />
          </mxGeometry>
        </mxCell>
        <mxCell id="yDGl7lu49Jlx236duuth-25" value="" style="shape=tableRow;horizontal=0;startSize=0;swimlaneHead=0;swimlaneBody=0;fillColor=none;collapsible=0;dropTarget=0;points=[[0,0.5],[1,0.5]];portConstraint=eastwest;top=0;left=0;right=0;bottom=0;fontSize=16;labelBackgroundColor=none;strokeColor=#E07A5F;fontColor=#393C56;rounded=1;" vertex="1" parent="yDGl7lu49Jlx236duuth-15">
          <mxGeometry y="120" width="180" height="30" as="geometry" />
        </mxCell>
        <mxCell id="yDGl7lu49Jlx236duuth-26" value="" style="shape=partialRectangle;connectable=0;fillColor=none;top=0;left=0;bottom=0;right=0;editable=1;overflow=hidden;whiteSpace=wrap;html=1;fontSize=16;labelBackgroundColor=none;strokeColor=#E07A5F;fontColor=#393C56;rounded=1;" vertex="1" parent="yDGl7lu49Jlx236duuth-25">
          <mxGeometry width="30" height="30" as="geometry">
            <mxRectangle width="30" height="30" as="alternateBounds" />
          </mxGeometry>
        </mxCell>
        <mxCell id="yDGl7lu49Jlx236duuth-27" value="Password" style="shape=partialRectangle;connectable=0;fillColor=none;top=0;left=0;bottom=0;right=0;align=left;spacingLeft=6;overflow=hidden;whiteSpace=wrap;html=1;fontSize=16;labelBackgroundColor=none;strokeColor=#E07A5F;fontColor=#393C56;rounded=1;" vertex="1" parent="yDGl7lu49Jlx236duuth-25">
          <mxGeometry x="30" width="150" height="30" as="geometry">
            <mxRectangle width="150" height="30" as="alternateBounds" />
          </mxGeometry>
        </mxCell>
        <mxCell id="yDGl7lu49Jlx236duuth-55" value="" style="shape=tableRow;horizontal=0;startSize=0;swimlaneHead=0;swimlaneBody=0;fillColor=none;collapsible=0;dropTarget=0;points=[[0,0.5],[1,0.5]];portConstraint=eastwest;top=0;left=0;right=0;bottom=0;fontSize=16;labelBackgroundColor=none;strokeColor=#E07A5F;fontColor=#393C56;rounded=1;" vertex="1" parent="yDGl7lu49Jlx236duuth-15">
          <mxGeometry y="150" width="180" height="30" as="geometry" />
        </mxCell>
        <mxCell id="yDGl7lu49Jlx236duuth-56" value="" style="shape=partialRectangle;connectable=0;fillColor=none;top=0;left=0;bottom=0;right=0;editable=1;overflow=hidden;whiteSpace=wrap;html=1;fontSize=16;labelBackgroundColor=none;strokeColor=#E07A5F;fontColor=#393C56;rounded=1;" vertex="1" parent="yDGl7lu49Jlx236duuth-55">
          <mxGeometry width="30" height="30" as="geometry">
            <mxRectangle width="30" height="30" as="alternateBounds" />
          </mxGeometry>
        </mxCell>
        <mxCell id="yDGl7lu49Jlx236duuth-57" value="RegistrationDate" style="shape=partialRectangle;connectable=0;fillColor=none;top=0;left=0;bottom=0;right=0;align=left;spacingLeft=6;overflow=hidden;whiteSpace=wrap;html=1;fontSize=16;labelBackgroundColor=none;strokeColor=#E07A5F;fontColor=#393C56;rounded=1;" vertex="1" parent="yDGl7lu49Jlx236duuth-55">
          <mxGeometry x="30" width="150" height="30" as="geometry">
            <mxRectangle width="150" height="30" as="alternateBounds" />
          </mxGeometry>
        </mxCell>
        <mxCell id="yDGl7lu49Jlx236duuth-70" value="Education" style="shape=table;startSize=30;container=1;collapsible=1;childLayout=tableLayout;fixedRows=1;rowLines=0;fontStyle=1;align=center;resizeLast=1;html=1;fontSize=16;labelBackgroundColor=none;fillColor=#F2CC8F;strokeColor=#E07A5F;fontColor=#393C56;rounded=1;" vertex="1" parent="1">
          <mxGeometry x="-100" y="485" width="180" height="180" as="geometry" />
        </mxCell>
        <mxCell id="yDGl7lu49Jlx236duuth-71" value="" style="shape=tableRow;horizontal=0;startSize=0;swimlaneHead=0;swimlaneBody=0;fillColor=none;collapsible=0;dropTarget=0;points=[[0,0.5],[1,0.5]];portConstraint=eastwest;top=0;left=0;right=0;bottom=1;fontSize=16;labelBackgroundColor=none;strokeColor=#E07A5F;fontColor=#393C56;rounded=1;" vertex="1" parent="yDGl7lu49Jlx236duuth-70">
          <mxGeometry y="30" width="180" height="30" as="geometry" />
        </mxCell>
        <mxCell id="yDGl7lu49Jlx236duuth-72" value="PK" style="shape=partialRectangle;connectable=0;fillColor=none;top=0;left=0;bottom=0;right=0;fontStyle=1;overflow=hidden;whiteSpace=wrap;html=1;fontSize=16;labelBackgroundColor=none;strokeColor=#E07A5F;fontColor=#393C56;rounded=1;" vertex="1" parent="yDGl7lu49Jlx236duuth-71">
          <mxGeometry width="30" height="30" as="geometry">
            <mxRectangle width="30" height="30" as="alternateBounds" />
          </mxGeometry>
        </mxCell>
        <mxCell id="yDGl7lu49Jlx236duuth-73" value="EducationID" style="shape=partialRectangle;connectable=0;fillColor=none;top=0;left=0;bottom=0;right=0;align=left;spacingLeft=6;fontStyle=5;overflow=hidden;whiteSpace=wrap;html=1;fontSize=16;labelBackgroundColor=none;strokeColor=#E07A5F;fontColor=#393C56;rounded=1;" vertex="1" parent="yDGl7lu49Jlx236duuth-71">
          <mxGeometry x="30" width="150" height="30" as="geometry">
            <mxRectangle width="150" height="30" as="alternateBounds" />
          </mxGeometry>
        </mxCell>
        <mxCell id="yDGl7lu49Jlx236duuth-74" value="" style="shape=tableRow;horizontal=0;startSize=0;swimlaneHead=0;swimlaneBody=0;fillColor=none;collapsible=0;dropTarget=0;points=[[0,0.5],[1,0.5]];portConstraint=eastwest;top=0;left=0;right=0;bottom=0;fontSize=16;labelBackgroundColor=none;strokeColor=#E07A5F;fontColor=#393C56;rounded=1;" vertex="1" parent="yDGl7lu49Jlx236duuth-70">
          <mxGeometry y="60" width="180" height="30" as="geometry" />
        </mxCell>
        <mxCell id="yDGl7lu49Jlx236duuth-75" value="" style="shape=partialRectangle;connectable=0;fillColor=none;top=0;left=0;bottom=0;right=0;editable=1;overflow=hidden;whiteSpace=wrap;html=1;fontSize=16;labelBackgroundColor=none;strokeColor=#E07A5F;fontColor=#393C56;rounded=1;" vertex="1" parent="yDGl7lu49Jlx236duuth-74">
          <mxGeometry width="30" height="30" as="geometry">
            <mxRectangle width="30" height="30" as="alternateBounds" />
          </mxGeometry>
        </mxCell>
        <mxCell id="yDGl7lu49Jlx236duuth-76" value="SchoolName" style="shape=partialRectangle;connectable=0;fillColor=none;top=0;left=0;bottom=0;right=0;align=left;spacingLeft=6;overflow=hidden;whiteSpace=wrap;html=1;fontSize=16;labelBackgroundColor=none;strokeColor=#E07A5F;fontColor=#393C56;rounded=1;" vertex="1" parent="yDGl7lu49Jlx236duuth-74">
          <mxGeometry x="30" width="150" height="30" as="geometry">
            <mxRectangle width="150" height="30" as="alternateBounds" />
          </mxGeometry>
        </mxCell>
        <mxCell id="yDGl7lu49Jlx236duuth-77" value="" style="shape=tableRow;horizontal=0;startSize=0;swimlaneHead=0;swimlaneBody=0;fillColor=none;collapsible=0;dropTarget=0;points=[[0,0.5],[1,0.5]];portConstraint=eastwest;top=0;left=0;right=0;bottom=0;fontSize=16;labelBackgroundColor=none;strokeColor=#E07A5F;fontColor=#393C56;rounded=1;" vertex="1" parent="yDGl7lu49Jlx236duuth-70">
          <mxGeometry y="90" width="180" height="30" as="geometry" />
        </mxCell>
        <mxCell id="yDGl7lu49Jlx236duuth-78" value="" style="shape=partialRectangle;connectable=0;fillColor=none;top=0;left=0;bottom=0;right=0;editable=1;overflow=hidden;whiteSpace=wrap;html=1;fontSize=16;labelBackgroundColor=none;strokeColor=#E07A5F;fontColor=#393C56;rounded=1;" vertex="1" parent="yDGl7lu49Jlx236duuth-77">
          <mxGeometry width="30" height="30" as="geometry">
            <mxRectangle width="30" height="30" as="alternateBounds" />
          </mxGeometry>
        </mxCell>
        <mxCell id="yDGl7lu49Jlx236duuth-79" value="Degree" style="shape=partialRectangle;connectable=0;fillColor=none;top=0;left=0;bottom=0;right=0;align=left;spacingLeft=6;overflow=hidden;whiteSpace=wrap;html=1;fontSize=16;labelBackgroundColor=none;strokeColor=#E07A5F;fontColor=#393C56;rounded=1;" vertex="1" parent="yDGl7lu49Jlx236duuth-77">
          <mxGeometry x="30" width="150" height="30" as="geometry">
            <mxRectangle width="150" height="30" as="alternateBounds" />
          </mxGeometry>
        </mxCell>
        <mxCell id="yDGl7lu49Jlx236duuth-80" value="" style="shape=tableRow;horizontal=0;startSize=0;swimlaneHead=0;swimlaneBody=0;fillColor=none;collapsible=0;dropTarget=0;points=[[0,0.5],[1,0.5]];portConstraint=eastwest;top=0;left=0;right=0;bottom=0;fontSize=16;labelBackgroundColor=none;strokeColor=#E07A5F;fontColor=#393C56;rounded=1;" vertex="1" parent="yDGl7lu49Jlx236duuth-70">
          <mxGeometry y="120" width="180" height="30" as="geometry" />
        </mxCell>
        <mxCell id="yDGl7lu49Jlx236duuth-81" value="" style="shape=partialRectangle;connectable=0;fillColor=none;top=0;left=0;bottom=0;right=0;editable=1;overflow=hidden;whiteSpace=wrap;html=1;fontSize=16;labelBackgroundColor=none;strokeColor=#E07A5F;fontColor=#393C56;rounded=1;" vertex="1" parent="yDGl7lu49Jlx236duuth-80">
          <mxGeometry width="30" height="30" as="geometry">
            <mxRectangle width="30" height="30" as="alternateBounds" />
          </mxGeometry>
        </mxCell>
        <mxCell id="yDGl7lu49Jlx236duuth-82" value="Major" style="shape=partialRectangle;connectable=0;fillColor=none;top=0;left=0;bottom=0;right=0;align=left;spacingLeft=6;overflow=hidden;whiteSpace=wrap;html=1;fontSize=16;labelBackgroundColor=none;strokeColor=#E07A5F;fontColor=#393C56;rounded=1;" vertex="1" parent="yDGl7lu49Jlx236duuth-80">
          <mxGeometry x="30" width="150" height="30" as="geometry">
            <mxRectangle width="150" height="30" as="alternateBounds" />
          </mxGeometry>
        </mxCell>
        <mxCell id="yDGl7lu49Jlx236duuth-83" value="" style="shape=tableRow;horizontal=0;startSize=0;swimlaneHead=0;swimlaneBody=0;fillColor=none;collapsible=0;dropTarget=0;points=[[0,0.5],[1,0.5]];portConstraint=eastwest;top=0;left=0;right=0;bottom=0;fontSize=16;labelBackgroundColor=none;strokeColor=#E07A5F;fontColor=#393C56;rounded=1;" vertex="1" parent="yDGl7lu49Jlx236duuth-70">
          <mxGeometry y="150" width="180" height="30" as="geometry" />
        </mxCell>
        <mxCell id="yDGl7lu49Jlx236duuth-84" value="" style="shape=partialRectangle;connectable=0;fillColor=none;top=0;left=0;bottom=0;right=0;editable=1;overflow=hidden;whiteSpace=wrap;html=1;fontSize=16;labelBackgroundColor=none;strokeColor=#E07A5F;fontColor=#393C56;rounded=1;" vertex="1" parent="yDGl7lu49Jlx236duuth-83">
          <mxGeometry width="30" height="30" as="geometry">
            <mxRectangle width="30" height="30" as="alternateBounds" />
          </mxGeometry>
        </mxCell>
        <mxCell id="yDGl7lu49Jlx236duuth-85" value="GraduationYear" style="shape=partialRectangle;connectable=0;fillColor=none;top=0;left=0;bottom=0;right=0;align=left;spacingLeft=6;overflow=hidden;whiteSpace=wrap;html=1;fontSize=16;labelBackgroundColor=none;strokeColor=#E07A5F;fontColor=#393C56;rounded=1;" vertex="1" parent="yDGl7lu49Jlx236duuth-83">
          <mxGeometry x="30" width="150" height="30" as="geometry">
            <mxRectangle width="150" height="30" as="alternateBounds" />
          </mxGeometry>
        </mxCell>
        <mxCell id="bDJYfbxkxiJSRchSU44N-1" value="Experience" style="shape=table;startSize=30;container=1;collapsible=1;childLayout=tableLayout;fixedRows=1;rowLines=0;fontStyle=1;align=center;resizeLast=1;html=1;fontSize=16;labelBackgroundColor=none;fillColor=#F2CC8F;strokeColor=#E07A5F;fontColor=#393C56;rounded=1;" vertex="1" parent="1">
          <mxGeometry x="160" y="480" width="180" height="180" as="geometry" />
        </mxCell>
        <mxCell id="bDJYfbxkxiJSRchSU44N-2" value="" style="shape=tableRow;horizontal=0;startSize=0;swimlaneHead=0;swimlaneBody=0;fillColor=none;collapsible=0;dropTarget=0;points=[[0,0.5],[1,0.5]];portConstraint=eastwest;top=0;left=0;right=0;bottom=1;fontSize=16;labelBackgroundColor=none;strokeColor=#E07A5F;fontColor=#393C56;rounded=1;" vertex="1" parent="bDJYfbxkxiJSRchSU44N-1">
          <mxGeometry y="30" width="180" height="30" as="geometry" />
        </mxCell>
        <mxCell id="bDJYfbxkxiJSRchSU44N-3" value="PK" style="shape=partialRectangle;connectable=0;fillColor=none;top=0;left=0;bottom=0;right=0;fontStyle=1;overflow=hidden;whiteSpace=wrap;html=1;fontSize=16;labelBackgroundColor=none;strokeColor=#E07A5F;fontColor=#393C56;rounded=1;" vertex="1" parent="bDJYfbxkxiJSRchSU44N-2">
          <mxGeometry width="30" height="30" as="geometry">
            <mxRectangle width="30" height="30" as="alternateBounds" />
          </mxGeometry>
        </mxCell>
        <mxCell id="bDJYfbxkxiJSRchSU44N-4" value="ExperienceID" style="shape=partialRectangle;connectable=0;fillColor=none;top=0;left=0;bottom=0;right=0;align=left;spacingLeft=6;fontStyle=5;overflow=hidden;whiteSpace=wrap;html=1;fontSize=16;labelBackgroundColor=none;strokeColor=#E07A5F;fontColor=#393C56;rounded=1;" vertex="1" parent="bDJYfbxkxiJSRchSU44N-2">
          <mxGeometry x="30" width="150" height="30" as="geometry">
            <mxRectangle width="150" height="30" as="alternateBounds" />
          </mxGeometry>
        </mxCell>
        <mxCell id="bDJYfbxkxiJSRchSU44N-5" value="" style="shape=tableRow;horizontal=0;startSize=0;swimlaneHead=0;swimlaneBody=0;fillColor=none;collapsible=0;dropTarget=0;points=[[0,0.5],[1,0.5]];portConstraint=eastwest;top=0;left=0;right=0;bottom=0;fontSize=16;labelBackgroundColor=none;strokeColor=#E07A5F;fontColor=#393C56;rounded=1;" vertex="1" parent="bDJYfbxkxiJSRchSU44N-1">
          <mxGeometry y="60" width="180" height="30" as="geometry" />
        </mxCell>
        <mxCell id="bDJYfbxkxiJSRchSU44N-6" value="" style="shape=partialRectangle;connectable=0;fillColor=none;top=0;left=0;bottom=0;right=0;editable=1;overflow=hidden;whiteSpace=wrap;html=1;fontSize=16;labelBackgroundColor=none;strokeColor=#E07A5F;fontColor=#393C56;rounded=1;" vertex="1" parent="bDJYfbxkxiJSRchSU44N-5">
          <mxGeometry width="30" height="30" as="geometry">
            <mxRectangle width="30" height="30" as="alternateBounds" />
          </mxGeometry>
        </mxCell>
        <mxCell id="bDJYfbxkxiJSRchSU44N-7" value="JobTitle" style="shape=partialRectangle;connectable=0;fillColor=none;top=0;left=0;bottom=0;right=0;align=left;spacingLeft=6;overflow=hidden;whiteSpace=wrap;html=1;fontSize=16;labelBackgroundColor=none;strokeColor=#E07A5F;fontColor=#393C56;rounded=1;" vertex="1" parent="bDJYfbxkxiJSRchSU44N-5">
          <mxGeometry x="30" width="150" height="30" as="geometry">
            <mxRectangle width="150" height="30" as="alternateBounds" />
          </mxGeometry>
        </mxCell>
        <mxCell id="bDJYfbxkxiJSRchSU44N-8" value="" style="shape=tableRow;horizontal=0;startSize=0;swimlaneHead=0;swimlaneBody=0;fillColor=none;collapsible=0;dropTarget=0;points=[[0,0.5],[1,0.5]];portConstraint=eastwest;top=0;left=0;right=0;bottom=0;fontSize=16;labelBackgroundColor=none;strokeColor=#E07A5F;fontColor=#393C56;rounded=1;" vertex="1" parent="bDJYfbxkxiJSRchSU44N-1">
          <mxGeometry y="90" width="180" height="30" as="geometry" />
        </mxCell>
        <mxCell id="bDJYfbxkxiJSRchSU44N-9" value="" style="shape=partialRectangle;connectable=0;fillColor=none;top=0;left=0;bottom=0;right=0;editable=1;overflow=hidden;whiteSpace=wrap;html=1;fontSize=16;labelBackgroundColor=none;strokeColor=#E07A5F;fontColor=#393C56;rounded=1;" vertex="1" parent="bDJYfbxkxiJSRchSU44N-8">
          <mxGeometry width="30" height="30" as="geometry">
            <mxRectangle width="30" height="30" as="alternateBounds" />
          </mxGeometry>
        </mxCell>
        <mxCell id="bDJYfbxkxiJSRchSU44N-10" value="Company" style="shape=partialRectangle;connectable=0;fillColor=none;top=0;left=0;bottom=0;right=0;align=left;spacingLeft=6;overflow=hidden;whiteSpace=wrap;html=1;fontSize=16;labelBackgroundColor=none;strokeColor=#E07A5F;fontColor=#393C56;rounded=1;" vertex="1" parent="bDJYfbxkxiJSRchSU44N-8">
          <mxGeometry x="30" width="150" height="30" as="geometry">
            <mxRectangle width="150" height="30" as="alternateBounds" />
          </mxGeometry>
        </mxCell>
        <mxCell id="bDJYfbxkxiJSRchSU44N-11" value="" style="shape=tableRow;horizontal=0;startSize=0;swimlaneHead=0;swimlaneBody=0;fillColor=none;collapsible=0;dropTarget=0;points=[[0,0.5],[1,0.5]];portConstraint=eastwest;top=0;left=0;right=0;bottom=0;fontSize=16;labelBackgroundColor=none;strokeColor=#E07A5F;fontColor=#393C56;rounded=1;" vertex="1" parent="bDJYfbxkxiJSRchSU44N-1">
          <mxGeometry y="120" width="180" height="30" as="geometry" />
        </mxCell>
        <mxCell id="bDJYfbxkxiJSRchSU44N-12" value="" style="shape=partialRectangle;connectable=0;fillColor=none;top=0;left=0;bottom=0;right=0;editable=1;overflow=hidden;whiteSpace=wrap;html=1;fontSize=16;labelBackgroundColor=none;strokeColor=#E07A5F;fontColor=#393C56;rounded=1;" vertex="1" parent="bDJYfbxkxiJSRchSU44N-11">
          <mxGeometry width="30" height="30" as="geometry">
            <mxRectangle width="30" height="30" as="alternateBounds" />
          </mxGeometry>
        </mxCell>
        <mxCell id="bDJYfbxkxiJSRchSU44N-13" value="StartDate" style="shape=partialRectangle;connectable=0;fillColor=none;top=0;left=0;bottom=0;right=0;align=left;spacingLeft=6;overflow=hidden;whiteSpace=wrap;html=1;fontSize=16;labelBackgroundColor=none;strokeColor=#E07A5F;fontColor=#393C56;rounded=1;" vertex="1" parent="bDJYfbxkxiJSRchSU44N-11">
          <mxGeometry x="30" width="150" height="30" as="geometry">
            <mxRectangle width="150" height="30" as="alternateBounds" />
          </mxGeometry>
        </mxCell>
        <mxCell id="bDJYfbxkxiJSRchSU44N-14" value="" style="shape=tableRow;horizontal=0;startSize=0;swimlaneHead=0;swimlaneBody=0;fillColor=none;collapsible=0;dropTarget=0;points=[[0,0.5],[1,0.5]];portConstraint=eastwest;top=0;left=0;right=0;bottom=0;fontSize=16;labelBackgroundColor=none;strokeColor=#E07A5F;fontColor=#393C56;rounded=1;" vertex="1" parent="bDJYfbxkxiJSRchSU44N-1">
          <mxGeometry y="150" width="180" height="30" as="geometry" />
        </mxCell>
        <mxCell id="bDJYfbxkxiJSRchSU44N-15" value="" style="shape=partialRectangle;connectable=0;fillColor=none;top=0;left=0;bottom=0;right=0;editable=1;overflow=hidden;whiteSpace=wrap;html=1;fontSize=16;labelBackgroundColor=none;strokeColor=#E07A5F;fontColor=#393C56;rounded=1;" vertex="1" parent="bDJYfbxkxiJSRchSU44N-14">
          <mxGeometry width="30" height="30" as="geometry">
            <mxRectangle width="30" height="30" as="alternateBounds" />
          </mxGeometry>
        </mxCell>
        <mxCell id="bDJYfbxkxiJSRchSU44N-16" value="EndDate" style="shape=partialRectangle;connectable=0;fillColor=none;top=0;left=0;bottom=0;right=0;align=left;spacingLeft=6;overflow=hidden;whiteSpace=wrap;html=1;fontSize=16;labelBackgroundColor=none;strokeColor=#E07A5F;fontColor=#393C56;rounded=1;" vertex="1" parent="bDJYfbxkxiJSRchSU44N-14">
          <mxGeometry x="30" width="150" height="30" as="geometry">
            <mxRectangle width="150" height="30" as="alternateBounds" />
          </mxGeometry>
        </mxCell>
      </root>
    </mxGraphModel>
  </diagram>
</mxfile>
